Genre:Comedy | Romance 
Language:English
IMDb:http://www.imdb.com/title/tt1282140/
Source:720p.BluRay.x264-METiS


General
Complete name :Easy A 2010 BRRip 720p H264 Feel-Free
Format : MPEG-4
Format profile : Base Media / Version 2
Codec ID : mp42
File size : 1.33 GiB
Duration : 1h 32mn
Overall bit rate : 2 056 Kbps
Video #1
Codec ID : avc1
Codec ID/Info : Advanced Video Coding
Duration : 1h 32mn
Bit rate mode : Variable
Bit rate : 1 506 Kbps
Width : 1 280 pixels
Height : 688 pixels
Display aspect ratio : 1.860
Frame rate mode : Constant
Frame rate : 23.976 fps
Resolution : 24 bits
Colorimetry : 4:2:0
Scan type : Progressive
Bits/(Pixel*Frame) : 0.071
Stream size : 996 MiB (73%)
Audio #2
ID : 2
Format : AAC
Format/Info : Advanced Audio Codec
Format version : Version 4
Format profile : LC
Format settings, SBR : No
Codec ID : 40
Duration : 1h 32mn
Bit rate mode : Constant
Bit rate : 546 Kbps
Nominal bit rate : 576 Kbps
Channel(s) : 6 channels
Channel positions : Front: L C R, Rear: L R, LFE
Sampling rate : 48.0 KHz
Resolution : 16 bits
Stream size : 361 MiB (27%)

Plot:
A clean-cut high school student relies on the school's rumor mill to advance her social and financial standing.





================================== 
http://thepiratebay.org/user/hiest
==================================